<svg class="icon" viewBox="0 0 1024 1024" xmlns="http://www.w3.org/2000/svg" width="200" height="200"><defs><style/></defs><path d="M511.976 64c-191.03 0-354.108 119.608-418.522 288h69.278c18.792-40.968 44.914-78.7 77.736-111.524C312.994 167.946 409.418 128 511.976 128c102.572 0 199.008 39.946 271.542 112.478C856.054 313.01 896 409.438 896 512c0 102.57-39.946 199.002-112.478 271.53C710.988 856.058 614.55 896 511.976 896c-102.562 0-198.986-39.942-271.51-112.468-32.824-32.824-58.946-70.56-77.742-111.532H93.45c64.412 168.402 227.492 288 418.528 288C759.406 960 960 759.43 960 512c0-247.404-200.594-448-448.024-448z"/><path d="M413.726 647.766l45.254 45.254L640 512 458.98 330.98l-45.256 45.256L517.49 480H64v64h453.49z"/></svg>