<svg class="icon" viewBox="0 0 1024 1024" xmlns="http://www.w3.org/2000/svg" width="200" height="200"><defs><style/></defs><path d="M714.2 722.8H316.3c-10 0-17.6 3.2-23.4 9.8-7.6 8.8-8.8 18.4-3.5 28.4 5.2 9.8 14.1 14.8 26.3 14.8h347.9c17.8 0 35.5.1 53.3-.1 15.9-.1 28.2-11.7 28.2-26.5.1-15.5-12.7-26.4-30.9-26.4zm-.6-151H317.9c-2.5 0-4.7.1-6.7.4-12.2 1.8-20.1 8.1-23.4 18.7-3.4 10.8-.4 20.2 9 27.8 5.4 4.4 12.3 6.4 22.3 6.4h391.8c4.7 0 8.3-.2 11.5-.7 12.3-1.9 22.1-12 22.9-23.5.6-8.8-2.6-16.6-8.9-21.8-5.9-4.8-13.7-7.3-22.8-7.3zM292.9 464.5c5.5 6.1 13.4 9.4 22.2 9.5 41.1.1 82.1.1 123.2.1h135.5c13.6-.1 24.8-8.1 27.8-20 2.3-9.1-.3-18.3-6.8-24.8-5.3-5.2-12.7-8.1-20.8-8.2-30.3-.1-60.6-.1-90.9-.1H315.3c-12.7 0-22.9 6.4-27.2 17.1-3.6 9.2-1.8 19.1 4.8 26.4zm391.8-286.4c.1-19.4.1-38.8 0-58.2-.1-32.2-23.1-55.6-54.7-55.6-78.6-.1-157.2-.1-235.9 0-32.2 0-54.7 23.1-54.9 56-.1 18.3 0 36.7 0 55 .1 34.7 22.1 57.2 56.2 57.2h81.7l30.9-.1h4.1c12.1 0 24.1 0 36.2.1h2.4c26.8 0 54.5.1 81.7-.2 29.7-.2 52.1-23.6 52.3-54.2zm-46.4 6.4H385.8v-72h252.4v72z" fill="#323333"/><path d="M247 122.5c-15-1-31-1.7-46.1.5-44.3 6.4-74 41.8-74.1 88v660.9c0 49.3 37.9 87.9 86.3 87.9 144.9.1 289.8 0 434.7 0h163c13.3 0 24.8-2.5 35.2-7.7 33.8-16.7 50.9-44.7 50.9-83.1.1-161.2 0-322.5 0-483.7V212.5c0-2.3 0-4.5-.1-6.8-1.4-39.3-29-73.4-65.6-81-12.8-2.7-27-2.7-40-2.7h-10.3c-6.2-.1-11.9 2-16.6 6.1-5.9 5.1-9.2 12.6-9.1 20.5.2 14.6 11.8 26.1 26.4 26.2h12.5c5.8 0 11.5 0 17.3.1 11.1.2 20.1 4.8 26.8 13.6 6.1 7.9 6.9 17.1 6.9 25v655.8c0 22.9-14.1 37.2-36.6 37.2H214.4c-21.7 0-36.3-14.5-36.3-36.1V210.8c0-21.3 14.4-35.8 35.8-35.9h11.3c6.1 0 12.3.1 18.4-.1 13-.4 23.6-11.5 24.2-25.3 1-13.8-8.7-26.2-20.8-27z" fill="#323333"/></svg>